# xmcd
#
# Track frame offsets:
#	150
#	19285
#	35669
#	49526
#	61373
#	76097
#	88490
#	104318
#	115208
#	149332
#	162467
#	178440
#	195243
#	211558
#
# Disc length: 3550 seconds
#
# Revision: 0
# Processed by: cddbd v1.5.2PL0 Copyright (c) Steve Scherf et al.
# Submitted via: EZCDAudioConverter 1.3.4.1
#
DISCID=c00ddc0e
DTITLE=Various Artist - Diablos Del Ritmo 1/2
DYEAR=1900
DGENRE=
TTITLE0=Wganda Kenya - El Caterete
TTITLE1=Julian Y Su Combo - Enyere Kumbara
TTITLE2=Myrian Makenwa - Amampondo
TTITLE3=Wasamayé Rock Group - Wasamayé
TTITLE4=Grupo Abharca - Schallcarri
TTITLE5=Sexteto Manaure - Bajo El Trupillo Guajiro
TTITLE6=Fuentes All-Stars - Pégale A La Nalga
TTITLE7=Grupo Folclórico - Juipiti
TTITLE8=Wganda Kenya - Shakalaodé
TTITLE9=Los Salvajes - Amor Salvaje
TTITLE10=Calixto Ochoa Y Los Papaupas - Lumbalú
TTITLE11=Abelardo Carbono - Quiero A Mi Gente
TTITLE12=Conjunto Son San - Cumbia San Pablera
TTITLE13=Conjunto Barbacoa - Calambre
EXTD=
EXTT0=
EXTT1=
EXTT2=
EXTT3=
EXTT4=
EXTT5=
EXTT6=
EXTT7=
EXTT8=
EXTT9=
EXTT10=
EXTT11=
EXTT12=
EXTT13=
PLAYORDER=
